<?xml version="1.0" encoding="utf-8" standalone="no"?>
<!DOCTYPE svg PUBLIC "-//W3C//DTD SVG 1.1//EN"
  "http://www.w3.org/Graphics/SVG/1.1/DTD/svg11.dtd">
<!-- Created with matplotlib (https://matplotlib.org/) -->
<svg height="491.695pt" version="1.1" viewBox="0 0 1185.045 491.695" width="1185.045pt" xmlns="http://www.w3.org/2000/svg" xmlns:xlink="http://www.w3.org/1999/xlink">
 <defs>
  <style type="text/css">
*{stroke-linecap:butt;stroke-linejoin:round;}
  </style>
 </defs>
 <g id="figure_1">
  <g id="patch_1">
   <path d="M 0 491.695 
L 1185.045 491.695 
L 1185.045 0 
L 0 0 
z
" style="fill:#ffffff;"/>
  </g>
  <g id="axes_1">
   <g id="patch_2">
    <path d="M 61.845 442.08 
L 569.117727 442.08 
L 569.117727 7.2 
L 61.845 7.2 
z
" style="fill:#ffffff;"/>
   </g>
   <g id="PathCollection_1">
    <defs>
     <path d="M 0 3 
C 0.795609 3 1.55874 2.683901 2.12132 2.12132 
C 2.683901 1.55874 3 0.795609 3 0 
C 3 -0.795609 2.683901 -1.55874 2.12132 -2.12132 
C 1.55874 -2.683901 0.795609 -3 0 -3 
C -0.795609 -3 -1.55874 -2.683901 -2.12132 -2.12132 
C -2.683901 -1.55874 -3 -0.795609 -3 0 
C -3 0.795609 -2.683901 1.55874 -2.12132 2.12132 
C -1.55874 2.683901 -0.795609 3 0 3 
z
" id="m04d88dddd3" style="stroke:#1f77b4;"/>
    </defs>
    <g clip-path="url(#p2073f3cb7a)">
     <use style="fill:#1f77b4;stroke:#1f77b4;" x="84.902982" xlink:href="#m04d88dddd3" y="405.638202"/>
     <use style="fill:#1f77b4;stroke:#1f77b4;" x="238.126177" xlink:href="#m04d88dddd3" y="292.841652"/>
     <use style="fill:#1f77b4;stroke:#1f77b4;" x="391.349373" xlink:href="#m04d88dddd3" y="188.163841"/>
     <use style="fill:#1f77b4;stroke:#1f77b4;" x="544.572568" xlink:href="#m04d88dddd3" y="83.533326"/>
    </g>
   </g>
   <g id="PathCollection_2">
    <defs>
     <path d="M 0 3 
C 0.795609 3 1.55874 2.683901 2.12132 2.12132 
C 2.683901 1.55874 3 0.795609 3 0 
C 3 -0.795609 2.683901 -1.55874 2.12132 -2.12132 
C 1.55874 -2.683901 0.795609 -3 0 -3 
C -0.795609 -3 -1.55874 -2.683901 -2.12132 -2.12132 
C -2.683901 -1.55874 -3 -0.795609 -3 0 
C -3 0.795609 -2.683901 1.55874 -2.12132 2.12132 
C -1.55874 2.683901 -0.795609 3 0 3 
z
" id="m9d9307f252" style="stroke:#ff7f0e;"/>
    </defs>
    <g clip-path="url(#p2073f3cb7a)">
     <use style="fill:#ff7f0e;stroke:#ff7f0e;" x="84.902982" xlink:href="#m9d9307f252" y="339.066764"/>
     <use style="fill:#ff7f0e;stroke:#ff7f0e;" x="238.126177" xlink:href="#m9d9307f252" y="235.718881"/>
     <use style="fill:#ff7f0e;stroke:#ff7f0e;" x="391.349373" xlink:href="#m9d9307f252" y="131.390123"/>
     <use style="fill:#ff7f0e;stroke:#ff7f0e;" x="544.572568" xlink:href="#m9d9307f252" y="27.164613"/>
    </g>
   </g>
   <g id="PathCollection_3">
    <defs>
     <path d="M 0 3 
C 0.795609 3 1.55874 2.683901 2.12132 2.12132 
C 2.683901 1.55874 3 0.795609 3 0 
C 3 -0.795609 2.683901 -1.55874 2.12132 -2.12132 
C 1.55874 -2.683901 0.795609 -3 0 -3 
C -0.795609 -3 -1.55874 -2.683901 -2.12132 -2.12132 
C -2.683901 -1.55874 -3 -0.795609 -3 0 
C -3 0.795609 -2.683901 1.55874 -2.12132 2.12132 
C -1.55874 2.683901 -0.795609 3 0 3 
z
" id="mca0dc1b602" style="stroke:#2ca02c;"/>
    </defs>
    <g clip-path="url(#p2073f3cb7a)">
     <use style="fill:#2ca02c;stroke:#2ca02c;" x="84.902982" xlink:href="#mca0dc1b602" y="422.312727"/>
     <use style="fill:#2ca02c;stroke:#2ca02c;" x="238.126177" xlink:href="#mca0dc1b602" y="333.729955"/>
     <use style="fill:#2ca02c;stroke:#2ca02c;" x="391.349373" xlink:href="#mca0dc1b602" y="230.063838"/>
     <use style="fill:#2ca02c;stroke:#2ca02c;" x="544.572568" xlink:href="#mca0dc1b602" y="126.110671"/>
    </g>
   </g>
   <g id="matplotlib.axis_1">
    <g id="xtick_1">
     <g id="line2d_1">
      <defs>
       <path d="M 0 0 
L 0 3.5 
" id="m32c03256ba" style="stroke:#000000;stroke-width:0.8;"/>
      </defs>
      <g>
       <use style="stroke:#000000;stroke-width:0.8;" x="84.902982" xlink:href="#m32c03256ba" y="442.08"/>
      </g>
     </g>
     <g id="text_1">
      <!-- $\mathdefault{10^{4}}$ -->
      <defs>
       <path d="M 12.40625 8.296875 
L 28.515625 8.296875 
L 28.515625 63.921875 
L 10.984375 60.40625 
L 10.984375 69.390625 
L 28.421875 72.90625 
L 38.28125 72.90625 
L 38.28125 8.296875 
L 54.390625 8.296875 
L 54.390625 0 
L 12.40625 0 
z
" id="DejaVuSans-49"/>
       <path d="M 31.78125 66.40625 
Q 24.171875 66.40625 20.328125 58.90625 
Q 16.5 51.421875 16.5 36.375 
Q 16.5 21.390625 20.328125 13.890625 
Q 24.171875 6.390625 31.78125 6.390625 
Q 39.453125 6.390625 43.28125 13.890625 
Q 47.125 21.390625 47.125 36.375 
Q 47.125 51.421875 43.28125 58.90625 
Q 39.453125 66.40625 31.78125 66.40625 
z
M 31.78125 74.21875 
Q 44.046875 74.21875 50.515625 64.515625 
Q 56.984375 54.828125 56.984375 36.375 
Q 56.984375 17.96875 50.515625 8.265625 
Q 44.046875 -1.421875 31.78125 -1.421875 
Q 19.53125 -1.421875 13.0625 8.265625 
Q 6.59375 17.96875 6.59375 36.375 
Q 6.59375 54.828125 13.0625 64.515625 
Q 19.53125 74.21875 31.78125 74.21875 
z
" id="DejaVuSans-48"/>
       <path d="M 37.796875 64.3125 
L 12.890625 25.390625 
L 37.796875 25.390625 
z
M 35.203125 72.90625 
L 47.609375 72.90625 
L 47.609375 25.390625 
L 58.015625 25.390625 
L 58.015625 17.1875 
L 47.609375 17.1875 
L 47.609375 0 
L 37.796875 0 
L 37.796875 17.1875 
L 4.890625 17.1875 
L 4.890625 26.703125 
z
" id="DejaVuSans-52"/>
      </defs>
      <g transform="translate(70.822982 461.2375)scale(0.16 -0.16)">
       <use transform="translate(0 0.684375)" xlink:href="#DejaVuSans-49"/>
       <use transform="translate(63.623047 0.684375)" xlink:href="#DejaVuSans-48"/>
       <use transform="translate(128.203125 38.965625)scale(0.7)" xlink:href="#DejaVuSans-52"/>
      </g>
     </g>
    </g>
    <g id="xtick_2">
     <g id="line2d_2">
      <g>
       <use style="stroke:#000000;stroke-width:0.8;" x="238.126177" xlink:href="#m32c03256ba" y="442.08"/>
      </g>
     </g>
     <g id="text_2">
      <!-- $\mathdefault{10^{5}}$ -->
      <defs>
       <path d="M 10.796875 72.90625 
L 49.515625 72.90625 
L 49.515625 64.59375 
L 19.828125 64.59375 
L 19.828125 46.734375 
Q 21.96875 47.46875 24.109375 47.828125 
Q 26.265625 48.1875 28.421875 48.1875 
Q 40.625 48.1875 47.75 41.5 
Q 54.890625 34.8125 54.890625 23.390625 
Q 54.890625 11.625 47.5625 5.09375 
Q 40.234375 -1.421875 26.90625 -1.421875 
Q 22.3125 -1.421875 17.546875 -0.640625 
Q 12.796875 0.140625 7.71875 1.703125 
L 7.71875 11.625 
Q 12.109375 9.234375 16.796875 8.0625 
Q 21.484375 6.890625 26.703125 6.890625 
Q 35.15625 6.890625 40.078125 11.328125 
Q 45.015625 15.765625 45.015625 23.390625 
Q 45.015625 31 40.078125 35.4375 
Q 35.15625 39.890625 26.703125 39.890625 
Q 22.75 39.890625 18.8125 39.015625 
Q 14.890625 38.140625 10.796875 36.28125 
z
" id="DejaVuSans-53"/>
      </defs>
      <g transform="translate(224.046177 461.2375)scale(0.16 -0.16)">
       <use transform="translate(0 0.684375)" xlink:href="#DejaVuSans-49"/>
       <use transform="translate(63.623047 0.684375)" xlink:href="#DejaVuSans-48"/>
       <use transform="translate(128.203125 38.965625)scale(0.7)" xlink:href="#DejaVuSans-53"/>
      </g>
     </g>
    </g>
    <g id="xtick_3">
     <g id="line2d_3">
      <g>
       <use style="stroke:#000000;stroke-width:0.8;" x="391.349373" xlink:href="#m32c03256ba" y="442.08"/>
      </g>
     </g>
     <g id="text_3">
      <!-- $\mathdefault{10^{6}}$ -->
      <defs>
       <path d="M 33.015625 40.375 
Q 26.375 40.375 22.484375 35.828125 
Q 18.609375 31.296875 18.609375 23.390625 
Q 18.609375 15.53125 22.484375 10.953125 
Q 26.375 6.390625 33.015625 6.390625 
Q 39.65625 6.390625 43.53125 10.953125 
Q 47.40625 15.53125 47.40625 23.390625 
Q 47.40625 31.296875 43.53125 35.828125 
Q 39.65625 40.375 33.015625 40.375 
z
M 52.59375 71.296875 
L 52.59375 62.3125 
Q 48.875 64.0625 45.09375 64.984375 
Q 41.3125 65.921875 37.59375 65.921875 
Q 27.828125 65.921875 22.671875 59.328125 
Q 17.53125 52.734375 16.796875 39.40625 
Q 19.671875 43.65625 24.015625 45.921875 
Q 28.375 48.1875 33.59375 48.1875 
Q 44.578125 48.1875 50.953125 41.515625 
Q 57.328125 34.859375 57.328125 23.390625 
Q 57.328125 12.15625 50.6875 5.359375 
Q 44.046875 -1.421875 33.015625 -1.421875 
Q 20.359375 -1.421875 13.671875 8.265625 
Q 6.984375 17.96875 6.984375 36.375 
Q 6.984375 53.65625 15.1875 63.9375 
Q 23.390625 74.21875 37.203125 74.21875 
Q 40.921875 74.21875 44.703125 73.484375 
Q 48.484375 72.75 52.59375 71.296875 
z
" id="DejaVuSans-54"/>
      </defs>
      <g transform="translate(377.269373 461.2375)scale(0.16 -0.16)">
       <use transform="translate(0 0.765625)" xlink:href="#DejaVuSans-49"/>
       <use transform="translate(63.623047 0.765625)" xlink:href="#DejaVuSans-48"/>
       <use transform="translate(128.203125 39.046875)scale(0.7)" xlink:href="#DejaVuSans-54"/>
      </g>
     </g>
    </g>
    <g id="xtick_4">
     <g id="line2d_4">
      <g>
       <use style="stroke:#000000;stroke-width:0.8;" x="544.572568" xlink:href="#m32c03256ba" y="442.08"/>
      </g>
     </g>
     <g id="text_4">
      <!-- $\mathdefault{10^{7}}$ -->
      <defs>
       <path d="M 8.203125 72.90625 
L 55.078125 72.90625 
L 55.078125 68.703125 
L 28.609375 0 
L 18.3125 0 
L 43.21875 64.59375 
L 8.203125 64.59375 
z
" id="DejaVuSans-55"/>
      </defs>
      <g transform="translate(530.492568 461.2375)scale(0.16 -0.16)">
       <use transform="translate(0 0.684375)" xlink:href="#DejaVuSans-49"/>
       <use transform="translate(63.623047 0.684375)" xlink:href="#DejaVuSans-48"/>
       <use transform="translate(128.203125 38.965625)scale(0.7)" xlink:href="#DejaVuSans-55"/>
      </g>
     </g>
    </g>
    <g id="xtick_5">
     <g id="line2d_5">
      <defs>
       <path d="M 0 0 
L 0 2 
" id="me439070098" style="stroke:#000000;stroke-width:0.6;"/>
      </defs>
      <g>
       <use style="stroke:#000000;stroke-width:0.6;" x="70.054121" xlink:href="#me439070098" y="442.08"/>
      </g>
     </g>
    </g>
    <g id="xtick_6">
     <g id="line2d_6">
      <g>
       <use style="stroke:#000000;stroke-width:0.6;" x="77.891874" xlink:href="#me439070098" y="442.08"/>
      </g>
     </g>
    </g>
    <g id="xtick_7">
     <g id="line2d_7">
      <g>
       <use style="stroke:#000000;stroke-width:0.6;" x="131.02776" xlink:href="#me439070098" y="442.08"/>
      </g>
     </g>
    </g>
    <g id="xtick_8">
     <g id="line2d_8">
      <g>
       <use style="stroke:#000000;stroke-width:0.6;" x="158.009025" xlink:href="#me439070098" y="442.08"/>
      </g>
     </g>
    </g>
    <g id="xtick_9">
     <g id="line2d_9">
      <g>
       <use style="stroke:#000000;stroke-width:0.6;" x="177.152538" xlink:href="#me439070098" y="442.08"/>
      </g>
     </g>
    </g>
    <g id="xtick_10">
     <g id="line2d_10">
      <g>
       <use style="stroke:#000000;stroke-width:0.6;" x="192.0014" xlink:href="#me439070098" y="442.08"/>
      </g>
     </g>
    </g>
    <g id="xtick_11">
     <g id="line2d_11">
      <g>
       <use style="stroke:#000000;stroke-width:0.6;" x="204.133803" xlink:href="#me439070098" y="442.08"/>
      </g>
     </g>
    </g>
    <g id="xtick_12">
     <g id="line2d_12">
      <g>
       <use style="stroke:#000000;stroke-width:0.6;" x="214.391604" xlink:href="#me439070098" y="442.08"/>
      </g>
     </g>
    </g>
    <g id="xtick_13">
     <g id="line2d_13">
      <g>
       <use style="stroke:#000000;stroke-width:0.6;" x="223.277316" xlink:href="#me439070098" y="442.08"/>
      </g>
     </g>
    </g>
    <g id="xtick_14">
     <g id="line2d_14">
      <g>
       <use style="stroke:#000000;stroke-width:0.6;" x="231.115069" xlink:href="#me439070098" y="442.08"/>
      </g>
     </g>
    </g>
    <g id="xtick_15">
     <g id="line2d_15">
      <g>
       <use style="stroke:#000000;stroke-width:0.6;" x="284.250955" xlink:href="#me439070098" y="442.08"/>
      </g>
     </g>
    </g>
    <g id="xtick_16">
     <g id="line2d_16">
      <g>
       <use style="stroke:#000000;stroke-width:0.6;" x="311.232221" xlink:href="#me439070098" y="442.08"/>
      </g>
     </g>
    </g>
    <g id="xtick_17">
     <g id="line2d_17">
      <g>
       <use style="stroke:#000000;stroke-width:0.6;" x="330.375733" xlink:href="#me439070098" y="442.08"/>
      </g>
     </g>
    </g>
    <g id="xtick_18">
     <g id="line2d_18">
      <g>
       <use style="stroke:#000000;stroke-width:0.6;" x="345.224595" xlink:href="#me439070098" y="442.08"/>
      </g>
     </g>
    </g>
    <g id="xtick_19">
     <g id="line2d_19">
      <g>
       <use style="stroke:#000000;stroke-width:0.6;" x="357.356998" xlink:href="#me439070098" y="442.08"/>
      </g>
     </g>
    </g>
    <g id="xtick_20">
     <g id="line2d_20">
      <g>
       <use style="stroke:#000000;stroke-width:0.6;" x="367.614799" xlink:href="#me439070098" y="442.08"/>
      </g>
     </g>
    </g>
    <g id="xtick_21">
     <g id="line2d_21">
      <g>
       <use style="stroke:#000000;stroke-width:0.6;" x="376.500511" xlink:href="#me439070098" y="442.08"/>
      </g>
     </g>
    </g>
    <g id="xtick_22">
     <g id="line2d_22">
      <g>
       <use style="stroke:#000000;stroke-width:0.6;" x="384.338264" xlink:href="#me439070098" y="442.08"/>
      </g>
     </g>
    </g>
    <g id="xtick_23">
     <g id="line2d_23">
      <g>
       <use style="stroke:#000000;stroke-width:0.6;" x="437.47415" xlink:href="#me439070098" y="442.08"/>
      </g>
     </g>
    </g>
    <g id="xtick_24">
     <g id="line2d_24">
      <g>
       <use style="stroke:#000000;stroke-width:0.6;" x="464.455416" xlink:href="#me439070098" y="442.08"/>
      </g>
     </g>
    </g>
    <g id="xtick_25">
     <g id="line2d_25">
      <g>
       <use style="stroke:#000000;stroke-width:0.6;" x="483.598928" xlink:href="#me439070098" y="442.08"/>
      </g>
     </g>
    </g>
    <g id="xtick_26">
     <g id="line2d_26">
      <g>
       <use style="stroke:#000000;stroke-width:0.6;" x="498.44779" xlink:href="#me439070098" y="442.08"/>
      </g>
     </g>
    </g>
    <g id="xtick_27">
     <g id="line2d_27">
      <g>
       <use style="stroke:#000000;stroke-width:0.6;" x="510.580193" xlink:href="#me439070098" y="442.08"/>
      </g>
     </g>
    </g>
    <g id="xtick_28">
     <g id="line2d_28">
      <g>
       <use style="stroke:#000000;stroke-width:0.6;" x="520.837994" xlink:href="#me439070098" y="442.08"/>
      </g>
     </g>
    </g>
    <g id="xtick_29">
     <g id="line2d_29">
      <g>
       <use style="stroke:#000000;stroke-width:0.6;" x="529.723706" xlink:href="#me439070098" y="442.08"/>
      </g>
     </g>
    </g>
    <g id="xtick_30">
     <g id="line2d_30">
      <g>
       <use style="stroke:#000000;stroke-width:0.6;" x="537.561459" xlink:href="#me439070098" y="442.08"/>
      </g>
     </g>
    </g>
    <g id="text_5">
     <!-- n_samples -->
     <defs>
      <path d="M 54.890625 33.015625 
L 54.890625 0 
L 45.90625 0 
L 45.90625 32.71875 
Q 45.90625 40.484375 42.875 44.328125 
Q 39.84375 48.1875 33.796875 48.1875 
Q 26.515625 48.1875 22.3125 43.546875 
Q 18.109375 38.921875 18.109375 30.90625 
L 18.109375 0 
L 9.078125 0 
L 9.078125 54.6875 
L 18.109375 54.6875 
L 18.109375 46.1875 
Q 21.34375 51.125 25.703125 53.5625 
Q 30.078125 56 35.796875 56 
Q 45.21875 56 50.046875 50.171875 
Q 54.890625 44.34375 54.890625 33.015625 
z
" id="DejaVuSans-110"/>
      <path d="M 50.984375 -16.609375 
L 50.984375 -23.578125 
L -0.984375 -23.578125 
L -0.984375 -16.609375 
z
" id="DejaVuSans-95"/>
      <path d="M 44.28125 53.078125 
L 44.28125 44.578125 
Q 40.484375 46.53125 36.375 47.5 
Q 32.28125 48.484375 27.875 48.484375 
Q 21.1875 48.484375 17.84375 46.4375 
Q 14.5 44.390625 14.5 40.28125 
Q 14.5 37.15625 16.890625 35.375 
Q 19.28125 33.59375 26.515625 31.984375 
L 29.59375 31.296875 
Q 39.15625 29.25 43.1875 25.515625 
Q 47.21875 21.78125 47.21875 15.09375 
Q 47.21875 7.46875 41.1875 3.015625 
Q 35.15625 -1.421875 24.609375 -1.421875 
Q 20.21875 -1.421875 15.453125 -0.5625 
Q 10.6875 0.296875 5.421875 2 
L 5.421875 11.28125 
Q 10.40625 8.6875 15.234375 7.390625 
Q 20.0625 6.109375 24.8125 6.109375 
Q 31.15625 6.109375 34.5625 8.28125 
Q 37.984375 10.453125 37.984375 14.40625 
Q 37.984375 18.0625 35.515625 20.015625 
Q 33.0625 21.96875 24.703125 23.78125 
L 21.578125 24.515625 
Q 13.234375 26.265625 9.515625 29.90625 
Q 5.8125 33.546875 5.8125 39.890625 
Q 5.8125 47.609375 11.28125 51.796875 
Q 16.75 56 26.8125 56 
Q 31.78125 56 36.171875 55.265625 
Q 40.578125 54.546875 44.28125 53.078125 
z
" id="DejaVuSans-115"/>
      <path d="M 34.28125 27.484375 
Q 23.390625 27.484375 19.1875 25 
Q 14.984375 22.515625 14.984375 16.5 
Q 14.984375 11.71875 18.140625 8.90625 
Q 21.296875 6.109375 26.703125 6.109375 
Q 34.1875 6.109375 38.703125 11.40625 
Q 43.21875 16.703125 43.21875 25.484375 
L 43.21875 27.484375 
z
M 52.203125 31.203125 
L 52.203125 0 
L 43.21875 0 
L 43.21875 8.296875 
Q 40.140625 3.328125 35.546875 0.953125 
Q 30.953125 -1.421875 24.3125 -1.421875 
Q 15.921875 -1.421875 10.953125 3.296875 
Q 6 8.015625 6 15.921875 
Q 6 25.140625 12.171875 29.828125 
Q 18.359375 34.515625 30.609375 34.515625 
L 43.21875 34.515625 
L 43.21875 35.40625 
Q 43.21875 41.609375 39.140625 45 
Q 35.0625 48.390625 27.6875 48.390625 
Q 23 48.390625 18.546875 47.265625 
Q 14.109375 46.140625 10.015625 43.890625 
L 10.015625 52.203125 
Q 14.9375 54.109375 19.578125 55.046875 
Q 24.21875 56 28.609375 56 
Q 40.484375 56 46.34375 49.84375 
Q 52.203125 43.703125 52.203125 31.203125 
z
" id="DejaVuSans-97"/>
      <path d="M 52 44.1875 
Q 55.375 50.25 60.0625 53.125 
Q 64.75 56 71.09375 56 
Q 79.640625 56 84.28125 50.015625 
Q 88.921875 44.046875 88.921875 33.015625 
L 88.921875 0 
L 79.890625 0 
L 79.890625 32.71875 
Q 79.890625 40.578125 77.09375 44.375 
Q 74.3125 48.1875 68.609375 48.1875 
Q 61.625 48.1875 57.5625 43.546875 
Q 53.515625 38.921875 53.515625 30.90625 
L 53.515625 0 
L 44.484375 0 
L 44.484375 32.71875 
Q 44.484375 40.625 41.703125 44.40625 
Q 38.921875 48.1875 33.109375 48.1875 
Q 26.21875 48.1875 22.15625 43.53125 
Q 18.109375 38.875 18.109375 30.90625 
L 18.109375 0 
L 9.078125 0 
L 9.078125 54.6875 
L 18.109375 54.6875 
L 18.109375 46.1875 
Q 21.1875 51.21875 25.484375 53.609375 
Q 29.78125 56 35.6875 56 
Q 41.65625 56 45.828125 52.96875 
Q 50 49.953125 52 44.1875 
z
" id="DejaVuSans-109"/>
      <path d="M 18.109375 8.203125 
L 18.109375 -20.796875 
L 9.078125 -20.796875 
L 9.078125 54.6875 
L 18.109375 54.6875 
L 18.109375 46.390625 
Q 20.953125 51.265625 25.265625 53.625 
Q 29.59375 56 35.59375 56 
Q 45.5625 56 51.78125 48.09375 
Q 58.015625 40.1875 58.015625 27.296875 
Q 58.015625 14.40625 51.78125 6.484375 
Q 45.5625 -1.421875 35.59375 -1.421875 
Q 29.59375 -1.421875 25.265625 0.953125 
Q 20.953125 3.328125 18.109375 8.203125 
z
M 48.6875 27.296875 
Q 48.6875 37.203125 44.609375 42.84375 
Q 40.53125 48.484375 33.40625 48.484375 
Q 26.265625 48.484375 22.1875 42.84375 
Q 18.109375 37.203125 18.109375 27.296875 
Q 18.109375 17.390625 22.1875 11.75 
Q 26.265625 6.109375 33.40625 6.109375 
Q 40.53125 6.109375 44.609375 11.75 
Q 48.6875 17.390625 48.6875 27.296875 
z
" id="DejaVuSans-112"/>
      <path d="M 9.421875 75.984375 
L 18.40625 75.984375 
L 18.40625 0 
L 9.421875 0 
z
" id="DejaVuSans-108"/>
      <path d="M 56.203125 29.59375 
L 56.203125 25.203125 
L 14.890625 25.203125 
Q 15.484375 15.921875 20.484375 11.0625 
Q 25.484375 6.203125 34.421875 6.203125 
Q 39.59375 6.203125 44.453125 7.46875 
Q 49.3125 8.734375 54.109375 11.28125 
L 54.109375 2.78125 
Q 49.265625 0.734375 44.1875 -0.34375 
Q 39.109375 -1.421875 33.890625 -1.421875 
Q 20.796875 -1.421875 13.15625 6.1875 
Q 5.515625 13.8125 5.515625 26.8125 
Q 5.515625 40.234375 12.765625 48.109375 
Q 20.015625 56 32.328125 56 
Q 43.359375 56 49.78125 48.890625 
Q 56.203125 41.796875 56.203125 29.59375 
z
M 47.21875 32.234375 
Q 47.125 39.59375 43.09375 43.984375 
Q 39.0625 48.390625 32.421875 48.390625 
Q 24.90625 48.390625 20.390625 44.140625 
Q 15.875 39.890625 15.1875 32.171875 
z
" id="DejaVuSans-101"/>
     </defs>
     <g transform="translate(273.157614 480.7225)scale(0.16 -0.16)">
      <use xlink:href="#DejaVuSans-110"/>
      <use x="63.378906" xlink:href="#DejaVuSans-95"/>
      <use x="113.378906" xlink:href="#DejaVuSans-115"/>
      <use x="165.478516" xlink:href="#DejaVuSans-97"/>
      <use x="226.757812" xlink:href="#DejaVuSans-109"/>
      <use x="324.169922" xlink:href="#DejaVuSans-112"/>
      <use x="387.646484" xlink:href="#DejaVuSans-108"/>
      <use x="415.429688" xlink:href="#DejaVuSans-101"/>
      <use x="476.953125" xlink:href="#DejaVuSans-115"/>
     </g>
    </g>
   </g>
   <g id="matplotlib.axis_2">
    <g id="ytick_1">
     <g id="line2d_31">
      <defs>
       <path d="M 0 0 
L -3.5 0 
" id="m5f304e4625" style="stroke:#000000;stroke-width:0.8;"/>
      </defs>
      <g>
       <use style="stroke:#000000;stroke-width:0.8;" x="61.845" xlink:href="#m5f304e4625" y="391.711214"/>
      </g>
     </g>
     <g id="text_6">
      <!-- $\mathdefault{10^{0}}$ -->
      <g transform="translate(26.685 397.789964)scale(0.16 -0.16)">
       <use transform="translate(0 0.765625)" xlink:href="#DejaVuSans-49"/>
       <use transform="translate(63.623047 0.765625)" xlink:href="#DejaVuSans-48"/>
       <use transform="translate(128.203125 39.046875)scale(0.7)" xlink:href="#DejaVuSans-48"/>
      </g>
     </g>
    </g>
    <g id="ytick_2">
     <g id="line2d_32">
      <g>
       <use style="stroke:#000000;stroke-width:0.8;" x="61.845" xlink:href="#m5f304e4625" y="287.442591"/>
      </g>
     </g>
     <g id="text_7">
      <!-- $\mathdefault{10^{1}}$ -->
      <g transform="translate(26.685 293.521341)scale(0.16 -0.16)">
       <use transform="translate(0 0.684375)" xlink:href="#DejaVuSans-49"/>
       <use transform="translate(63.623047 0.684375)" xlink:href="#DejaVuSans-48"/>
       <use transform="translate(128.203125 38.965625)scale(0.7)" xlink:href="#DejaVuSans-49"/>
      </g>
     </g>
    </g>
    <g id="ytick_3">
     <g id="line2d_33">
      <g>
       <use style="stroke:#000000;stroke-width:0.8;" x="61.845" xlink:href="#m5f304e4625" y="183.173967"/>
      </g>
     </g>
     <g id="text_8">
      <!-- $\mathdefault{10^{2}}$ -->
      <defs>
       <path d="M 19.1875 8.296875 
L 53.609375 8.296875 
L 53.609375 0 
L 7.328125 0 
L 7.328125 8.296875 
Q 12.9375 14.109375 22.625 23.890625 
Q 32.328125 33.6875 34.8125 36.53125 
Q 39.546875 41.84375 41.421875 45.53125 
Q 43.3125 49.21875 43.3125 52.78125 
Q 43.3125 58.59375 39.234375 62.25 
Q 35.15625 65.921875 28.609375 65.921875 
Q 23.96875 65.921875 18.8125 64.3125 
Q 13.671875 62.703125 7.8125 59.421875 
L 7.8125 69.390625 
Q 13.765625 71.78125 18.9375 73 
Q 24.125 74.21875 28.421875 74.21875 
Q 39.75 74.21875 46.484375 68.546875 
Q 53.21875 62.890625 53.21875 53.421875 
Q 53.21875 48.921875 51.53125 44.890625 
Q 49.859375 40.875 45.40625 35.40625 
Q 44.1875 33.984375 37.640625 27.21875 
Q 31.109375 20.453125 19.1875 8.296875 
z
" id="DejaVuSans-50"/>
      </defs>
      <g transform="translate(26.685 189.252717)scale(0.16 -0.16)">
       <use transform="translate(0 0.765625)" xlink:href="#DejaVuSans-49"/>
       <use transform="translate(63.623047 0.765625)" xlink:href="#DejaVuSans-48"/>
       <use transform="translate(128.203125 39.046875)scale(0.7)" xlink:href="#DejaVuSans-50"/>
      </g>
     </g>
    </g>
    <g id="ytick_4">
     <g id="line2d_34">
      <g>
       <use style="stroke:#000000;stroke-width:0.8;" x="61.845" xlink:href="#m5f304e4625" y="78.905344"/>
      </g>
     </g>
     <g id="text_9">
      <!-- $\mathdefault{10^{3}}$ -->
      <defs>
       <path d="M 40.578125 39.3125 
Q 47.65625 37.796875 51.625 33 
Q 55.609375 28.21875 55.609375 21.1875 
Q 55.609375 10.40625 48.1875 4.484375 
Q 40.765625 -1.421875 27.09375 -1.421875 
Q 22.515625 -1.421875 17.65625 -0.515625 
Q 12.796875 0.390625 7.625 2.203125 
L 7.625 11.71875 
Q 11.71875 9.328125 16.59375 8.109375 
Q 21.484375 6.890625 26.8125 6.890625 
Q 36.078125 6.890625 40.9375 10.546875 
Q 45.796875 14.203125 45.796875 21.1875 
Q 45.796875 27.640625 41.28125 31.265625 
Q 36.765625 34.90625 28.71875 34.90625 
L 20.21875 34.90625 
L 20.21875 43.015625 
L 29.109375 43.015625 
Q 36.375 43.015625 40.234375 45.921875 
Q 44.09375 48.828125 44.09375 54.296875 
Q 44.09375 59.90625 40.109375 62.90625 
Q 36.140625 65.921875 28.71875 65.921875 
Q 24.65625 65.921875 20.015625 65.03125 
Q 15.375 64.15625 9.8125 62.3125 
L 9.8125 71.09375 
Q 15.4375 72.65625 20.34375 73.4375 
Q 25.25 74.21875 29.59375 74.21875 
Q 40.828125 74.21875 47.359375 69.109375 
Q 53.90625 64.015625 53.90625 55.328125 
Q 53.90625 49.265625 50.4375 45.09375 
Q 46.96875 40.921875 40.578125 39.3125 
z
" id="DejaVuSans-51"/>
      </defs>
      <g transform="translate(26.685 84.984094)scale(0.16 -0.16)">
       <use transform="translate(0 0.765625)" xlink:href="#DejaVuSans-49"/>
       <use transform="translate(63.623047 0.765625)" xlink:href="#DejaVuSans-48"/>
       <use transform="translate(128.203125 39.046875)scale(0.7)" xlink:href="#DejaVuSans-51"/>
      </g>
     </g>
    </g>
    <g id="ytick_5">
     <g id="line2d_35">
      <defs>
       <path d="M 0 0 
L -2 0 
" id="mcc281ebe8e" style="stroke:#000000;stroke-width:0.6;"/>
      </defs>
      <g>
       <use style="stroke:#000000;stroke-width:0.6;" x="61.845" xlink:href="#mcc281ebe8e" y="433.203871"/>
      </g>
     </g>
    </g>
    <g id="ytick_6">
     <g id="line2d_36">
      <g>
       <use style="stroke:#000000;stroke-width:0.6;" x="61.845" xlink:href="#mcc281ebe8e" y="423.099197"/>
      </g>
     </g>
    </g>
    <g id="ytick_7">
     <g id="line2d_37">
      <g>
       <use style="stroke:#000000;stroke-width:0.6;" x="61.845" xlink:href="#mcc281ebe8e" y="414.843078"/>
      </g>
     </g>
    </g>
    <g id="ytick_8">
     <g id="line2d_38">
      <g>
       <use style="stroke:#000000;stroke-width:0.6;" x="61.845" xlink:href="#mcc281ebe8e" y="407.862628"/>
      </g>
     </g>
    </g>
    <g id="ytick_9">
     <g id="line2d_39">
      <g>
       <use style="stroke:#000000;stroke-width:0.6;" x="61.845" xlink:href="#mcc281ebe8e" y="401.815888"/>
      </g>
     </g>
    </g>
    <g id="ytick_10">
     <g id="line2d_40">
      <g>
       <use style="stroke:#000000;stroke-width:0.6;" x="61.845" xlink:href="#mcc281ebe8e" y="396.482285"/>
      </g>
     </g>
    </g>
    <g id="ytick_11">
     <g id="line2d_41">
      <g>
       <use style="stroke:#000000;stroke-width:0.6;" x="61.845" xlink:href="#mcc281ebe8e" y="360.323231"/>
      </g>
     </g>
    </g>
    <g id="ytick_12">
     <g id="line2d_42">
      <g>
       <use style="stroke:#000000;stroke-width:0.6;" x="61.845" xlink:href="#mcc281ebe8e" y="341.962438"/>
      </g>
     </g>
    </g>
    <g id="ytick_13">
     <g id="line2d_43">
      <g>
       <use style="stroke:#000000;stroke-width:0.6;" x="61.845" xlink:href="#mcc281ebe8e" y="328.935248"/>
      </g>
     </g>
    </g>
    <g id="ytick_14">
     <g id="line2d_44">
      <g>
       <use style="stroke:#000000;stroke-width:0.6;" x="61.845" xlink:href="#mcc281ebe8e" y="318.830574"/>
      </g>
     </g>
    </g>
    <g id="ytick_15">
     <g id="line2d_45">
      <g>
       <use style="stroke:#000000;stroke-width:0.6;" x="61.845" xlink:href="#mcc281ebe8e" y="310.574454"/>
      </g>
     </g>
    </g>
    <g id="ytick_16">
     <g id="line2d_46">
      <g>
       <use style="stroke:#000000;stroke-width:0.6;" x="61.845" xlink:href="#mcc281ebe8e" y="303.594005"/>
      </g>
     </g>
    </g>
    <g id="ytick_17">
     <g id="line2d_47">
      <g>
       <use style="stroke:#000000;stroke-width:0.6;" x="61.845" xlink:href="#mcc281ebe8e" y="297.547264"/>
      </g>
     </g>
    </g>
    <g id="ytick_18">
     <g id="line2d_48">
      <g>
       <use style="stroke:#000000;stroke-width:0.6;" x="61.845" xlink:href="#mcc281ebe8e" y="292.213661"/>
      </g>
     </g>
    </g>
    <g id="ytick_19">
     <g id="line2d_49">
      <g>
       <use style="stroke:#000000;stroke-width:0.6;" x="61.845" xlink:href="#mcc281ebe8e" y="256.054607"/>
      </g>
     </g>
    </g>
    <g id="ytick_20">
     <g id="line2d_50">
      <g>
       <use style="stroke:#000000;stroke-width:0.6;" x="61.845" xlink:href="#mcc281ebe8e" y="237.693814"/>
      </g>
     </g>
    </g>
    <g id="ytick_21">
     <g id="line2d_51">
      <g>
       <use style="stroke:#000000;stroke-width:0.6;" x="61.845" xlink:href="#mcc281ebe8e" y="224.666624"/>
      </g>
     </g>
    </g>
    <g id="ytick_22">
     <g id="line2d_52">
      <g>
       <use style="stroke:#000000;stroke-width:0.6;" x="61.845" xlink:href="#mcc281ebe8e" y="214.56195"/>
      </g>
     </g>
    </g>
    <g id="ytick_23">
     <g id="line2d_53">
      <g>
       <use style="stroke:#000000;stroke-width:0.6;" x="61.845" xlink:href="#mcc281ebe8e" y="206.305831"/>
      </g>
     </g>
    </g>
    <g id="ytick_24">
     <g id="line2d_54">
      <g>
       <use style="stroke:#000000;stroke-width:0.6;" x="61.845" xlink:href="#mcc281ebe8e" y="199.325381"/>
      </g>
     </g>
    </g>
    <g id="ytick_25">
     <g id="line2d_55">
      <g>
       <use style="stroke:#000000;stroke-width:0.6;" x="61.845" xlink:href="#mcc281ebe8e" y="193.278641"/>
      </g>
     </g>
    </g>
    <g id="ytick_26">
     <g id="line2d_56">
      <g>
       <use style="stroke:#000000;stroke-width:0.6;" x="61.845" xlink:href="#mcc281ebe8e" y="187.945038"/>
      </g>
     </g>
    </g>
    <g id="ytick_27">
     <g id="line2d_57">
      <g>
       <use style="stroke:#000000;stroke-width:0.6;" x="61.845" xlink:href="#mcc281ebe8e" y="151.785984"/>
      </g>
     </g>
    </g>
    <g id="ytick_28">
     <g id="line2d_58">
      <g>
       <use style="stroke:#000000;stroke-width:0.6;" x="61.845" xlink:href="#mcc281ebe8e" y="133.425191"/>
      </g>
     </g>
    </g>
    <g id="ytick_29">
     <g id="line2d_59">
      <g>
       <use style="stroke:#000000;stroke-width:0.6;" x="61.845" xlink:href="#mcc281ebe8e" y="120.398001"/>
      </g>
     </g>
    </g>
    <g id="ytick_30">
     <g id="line2d_60">
      <g>
       <use style="stroke:#000000;stroke-width:0.6;" x="61.845" xlink:href="#mcc281ebe8e" y="110.293327"/>
      </g>
     </g>
    </g>
    <g id="ytick_31">
     <g id="line2d_61">
      <g>
       <use style="stroke:#000000;stroke-width:0.6;" x="61.845" xlink:href="#mcc281ebe8e" y="102.037207"/>
      </g>
     </g>
    </g>
    <g id="ytick_32">
     <g id="line2d_62">
      <g>
       <use style="stroke:#000000;stroke-width:0.6;" x="61.845" xlink:href="#mcc281ebe8e" y="95.056758"/>
      </g>
     </g>
    </g>
    <g id="ytick_33">
     <g id="line2d_63">
      <g>
       <use style="stroke:#000000;stroke-width:0.6;" x="61.845" xlink:href="#mcc281ebe8e" y="89.010017"/>
      </g>
     </g>
    </g>
    <g id="ytick_34">
     <g id="line2d_64">
      <g>
       <use style="stroke:#000000;stroke-width:0.6;" x="61.845" xlink:href="#mcc281ebe8e" y="83.676414"/>
      </g>
     </g>
    </g>
    <g id="ytick_35">
     <g id="line2d_65">
      <g>
       <use style="stroke:#000000;stroke-width:0.6;" x="61.845" xlink:href="#mcc281ebe8e" y="47.51736"/>
      </g>
     </g>
    </g>
    <g id="ytick_36">
     <g id="line2d_66">
      <g>
       <use style="stroke:#000000;stroke-width:0.6;" x="61.845" xlink:href="#mcc281ebe8e" y="29.156567"/>
      </g>
     </g>
    </g>
    <g id="ytick_37">
     <g id="line2d_67">
      <g>
       <use style="stroke:#000000;stroke-width:0.6;" x="61.845" xlink:href="#mcc281ebe8e" y="16.129377"/>
      </g>
     </g>
    </g>
    <g id="text_10">
     <!-- fit time (s) -->
     <defs>
      <path d="M 37.109375 75.984375 
L 37.109375 68.5 
L 28.515625 68.5 
Q 23.6875 68.5 21.796875 66.546875 
Q 19.921875 64.59375 19.921875 59.515625 
L 19.921875 54.6875 
L 34.71875 54.6875 
L 34.71875 47.703125 
L 19.921875 47.703125 
L 19.921875 0 
L 10.890625 0 
L 10.890625 47.703125 
L 2.296875 47.703125 
L 2.296875 54.6875 
L 10.890625 54.6875 
L 10.890625 58.5 
Q 10.890625 67.625 15.140625 71.796875 
Q 19.390625 75.984375 28.609375 75.984375 
z
" id="DejaVuSans-102"/>
      <path d="M 9.421875 54.6875 
L 18.40625 54.6875 
L 18.40625 0 
L 9.421875 0 
z
M 9.421875 75.984375 
L 18.40625 75.984375 
L 18.40625 64.59375 
L 9.421875 64.59375 
z
" id="DejaVuSans-105"/>
      <path d="M 18.3125 70.21875 
L 18.3125 54.6875 
L 36.8125 54.6875 
L 36.8125 47.703125 
L 18.3125 47.703125 
L 18.3125 18.015625 
Q 18.3125 11.328125 20.140625 9.421875 
Q 21.96875 7.515625 27.59375 7.515625 
L 36.8125 7.515625 
L 36.8125 0 
L 27.59375 0 
Q 17.1875 0 13.234375 3.875 
Q 9.28125 7.765625 9.28125 18.015625 
L 9.28125 47.703125 
L 2.6875 47.703125 
L 2.6875 54.6875 
L 9.28125 54.6875 
L 9.28125 70.21875 
z
" id="DejaVuSans-116"/>
      <path id="DejaVuSans-32"/>
      <path d="M 31 75.875 
Q 24.46875 64.65625 21.28125 53.65625 
Q 18.109375 42.671875 18.109375 31.390625 
Q 18.109375 20.125 21.3125 9.0625 
Q 24.515625 -2 31 -13.1875 
L 23.1875 -13.1875 
Q 15.875 -1.703125 12.234375 9.375 
Q 8.59375 20.453125 8.59375 31.390625 
Q 8.59375 42.28125 12.203125 53.3125 
Q 15.828125 64.359375 23.1875 75.875 
z
" id="DejaVuSans-40"/>
      <path d="M 8.015625 75.875 
L 15.828125 75.875 
Q 23.140625 64.359375 26.78125 53.3125 
Q 30.421875 42.28125 30.421875 31.390625 
Q 30.421875 20.453125 26.78125 9.375 
Q 23.140625 -1.703125 15.828125 -13.1875 
L 8.015625 -13.1875 
Q 14.5 -2 17.703125 9.0625 
Q 20.90625 20.125 20.90625 31.390625 
Q 20.90625 42.671875 17.703125 53.65625 
Q 14.5 64.65625 8.015625 75.875 
z
" id="DejaVuSans-41"/>
     </defs>
     <g transform="translate(19.3575 266.38375)rotate(-90)scale(0.16 -0.16)">
      <use xlink:href="#DejaVuSans-102"/>
      <use x="35.205078" xlink:href="#DejaVuSans-105"/>
      <use x="62.988281" xlink:href="#DejaVuSans-116"/>
      <use x="102.197266" xlink:href="#DejaVuSans-32"/>
      <use x="133.984375" xlink:href="#DejaVuSans-116"/>
      <use x="173.193359" xlink:href="#DejaVuSans-105"/>
      <use x="200.976562" xlink:href="#DejaVuSans-109"/>
      <use x="298.388672" xlink:href="#DejaVuSans-101"/>
      <use x="359.912109" xlink:href="#DejaVuSans-32"/>
      <use x="391.699219" xlink:href="#DejaVuSans-40"/>
      <use x="430.712891" xlink:href="#DejaVuSans-115"/>
      <use x="482.8125" xlink:href="#DejaVuSans-41"/>
     </g>
    </g>
   </g>
   <g id="line2d_68">
    <path clip-path="url(#p2073f3cb7a)" d="M 84.902982 405.638202 
L 238.126177 292.841652 
L 391.349373 188.163841 
L 544.572568 83.533326 
" style="fill:none;stroke:#1f77b4;stroke-dasharray:5.55,2.4;stroke-dashoffset:0;stroke-width:1.5;"/>
   </g>
   <g id="line2d_69">
    <path clip-path="url(#p2073f3cb7a)" d="M 84.902982 339.066764 
L 238.126177 235.718881 
L 391.349373 131.390123 
L 544.572568 27.164613 
" style="fill:none;stroke:#ff7f0e;stroke-dasharray:5.55,2.4;stroke-dashoffset:0;stroke-width:1.5;"/>
   </g>
   <g id="line2d_70">
    <path clip-path="url(#p2073f3cb7a)" d="M 84.902982 422.312727 
L 238.126177 333.729955 
L 391.349373 230.063838 
L 544.572568 126.110671 
" style="fill:none;stroke:#2ca02c;stroke-dasharray:5.55,2.4;stroke-dashoffset:0;stroke-width:1.5;"/>
   </g>
   <g id="patch_3">
    <path d="M 61.845 442.08 
L 61.845 7.2 
" style="fill:none;stroke:#000000;stroke-linecap:square;stroke-linejoin:miter;stroke-width:0.8;"/>
   </g>
   <g id="patch_4">
    <path d="M 569.117727 442.08 
L 569.117727 7.2 
" style="fill:none;stroke:#000000;stroke-linecap:square;stroke-linejoin:miter;stroke-width:0.8;"/>
   </g>
   <g id="patch_5">
    <path d="M 61.845 442.08 
L 569.117727 442.08 
" style="fill:none;stroke:#000000;stroke-linecap:square;stroke-linejoin:miter;stroke-width:0.8;"/>
   </g>
   <g id="patch_6">
    <path d="M 61.845 7.2 
L 569.117727 7.2 
" style="fill:none;stroke:#000000;stroke-linecap:square;stroke-linejoin:miter;stroke-width:0.8;"/>
   </g>
   <g id="legend_1">
    <g id="patch_7">
     <path d="M 73.045 91.485 
L 421.2125 91.485 
Q 424.4125 91.485 424.4125 88.285 
L 424.4125 18.4 
Q 424.4125 15.2 421.2125 15.2 
L 73.045 15.2 
Q 69.845 15.2 69.845 18.4 
L 69.845 88.285 
Q 69.845 91.485 73.045 91.485 
z
" style="fill:#ffffff;opacity:0.8;stroke:#cccccc;stroke-linejoin:miter;"/>
    </g>
    <g id="line2d_71">
     <path d="M 76.245 28.2275 
L 108.245 28.2275 
" style="fill:none;stroke:#1f77b4;stroke-dasharray:5.55,2.4;stroke-dashoffset:0;stroke-width:1.5;"/>
    </g>
    <g id="line2d_72"/>
    <g id="text_11">
     <!-- v0.22 | precompute_distances=True -->
     <defs>
      <path d="M 2.984375 54.6875 
L 12.5 54.6875 
L 29.59375 8.796875 
L 46.6875 54.6875 
L 56.203125 54.6875 
L 35.6875 0 
L 23.484375 0 
z
" id="DejaVuSans-118"/>
      <path d="M 10.6875 12.40625 
L 21 12.40625 
L 21 0 
L 10.6875 0 
z
" id="DejaVuSans-46"/>
      <path d="M 21 76.421875 
L 21 -23.578125 
L 12.703125 -23.578125 
L 12.703125 76.421875 
z
" id="DejaVuSans-124"/>
      <path d="M 41.109375 46.296875 
Q 39.59375 47.171875 37.8125 47.578125 
Q 36.03125 48 33.890625 48 
Q 26.265625 48 22.1875 43.046875 
Q 18.109375 38.09375 18.109375 28.8125 
L 18.109375 0 
L 9.078125 0 
L 9.078125 54.6875 
L 18.109375 54.6875 
L 18.109375 46.1875 
Q 20.953125 51.171875 25.484375 53.578125 
Q 30.03125 56 36.53125 56 
Q 37.453125 56 38.578125 55.875 
Q 39.703125 55.765625 41.0625 55.515625 
z
" id="DejaVuSans-114"/>
      <path d="M 48.78125 52.59375 
L 48.78125 44.1875 
Q 44.96875 46.296875 41.140625 47.34375 
Q 37.3125 48.390625 33.40625 48.390625 
Q 24.65625 48.390625 19.8125 42.84375 
Q 14.984375 37.3125 14.984375 27.296875 
Q 14.984375 17.28125 19.8125 11.734375 
Q 24.65625 6.203125 33.40625 6.203125 
Q 37.3125 6.203125 41.140625 7.25 
Q 44.96875 8.296875 48.78125 10.40625 
L 48.78125 2.09375 
Q 45.015625 0.34375 40.984375 -0.53125 
Q 36.96875 -1.421875 32.421875 -1.421875 
Q 20.0625 -1.421875 12.78125 6.34375 
Q 5.515625 14.109375 5.515625 27.296875 
Q 5.515625 40.671875 12.859375 48.328125 
Q 20.21875 56 33.015625 56 
Q 37.15625 56 41.109375 55.140625 
Q 45.0625 54.296875 48.78125 52.59375 
z
" id="DejaVuSans-99"/>
      <path d="M 30.609375 48.390625 
Q 23.390625 48.390625 19.1875 42.75 
Q 14.984375 37.109375 14.984375 27.296875 
Q 14.984375 17.484375 19.15625 11.84375 
Q 23.34375 6.203125 30.609375 6.203125 
Q 37.796875 6.203125 41.984375 11.859375 
Q 46.1875 17.53125 46.1875 27.296875 
Q 46.1875 37.015625 41.984375 42.703125 
Q 37.796875 48.390625 30.609375 48.390625 
z
M 30.609375 56 
Q 42.328125 56 49.015625 48.375 
Q 55.71875 40.765625 55.71875 27.296875 
Q 55.71875 13.875 49.015625 6.21875 
Q 42.328125 -1.421875 30.609375 -1.421875 
Q 18.84375 -1.421875 12.171875 6.21875 
Q 5.515625 13.875 5.515625 27.296875 
Q 5.515625 40.765625 12.171875 48.375 
Q 18.84375 56 30.609375 56 
z
" id="DejaVuSans-111"/>
      <path d="M 8.5 21.578125 
L 8.5 54.6875 
L 17.484375 54.6875 
L 17.484375 21.921875 
Q 17.484375 14.15625 20.5 10.265625 
Q 23.53125 6.390625 29.59375 6.390625 
Q 36.859375 6.390625 41.078125 11.03125 
Q 45.3125 15.671875 45.3125 23.6875 
L 45.3125 54.6875 
L 54.296875 54.6875 
L 54.296875 0 
L 45.3125 0 
L 45.3125 8.40625 
Q 42.046875 3.421875 37.71875 1 
Q 33.40625 -1.421875 27.6875 -1.421875 
Q 18.265625 -1.421875 13.375 4.4375 
Q 8.5 10.296875 8.5 21.578125 
z
M 31.109375 56 
z
" id="DejaVuSans-117"/>
      <path d="M 45.40625 46.390625 
L 45.40625 75.984375 
L 54.390625 75.984375 
L 54.390625 0 
L 45.40625 0 
L 45.40625 8.203125 
Q 42.578125 3.328125 38.25 0.953125 
Q 33.9375 -1.421875 27.875 -1.421875 
Q 17.96875 -1.421875 11.734375 6.484375 
Q 5.515625 14.40625 5.515625 27.296875 
Q 5.515625 40.1875 11.734375 48.09375 
Q 17.96875 56 27.875 56 
Q 33.9375 56 38.25 53.625 
Q 42.578125 51.265625 45.40625 46.390625 
z
M 14.796875 27.296875 
Q 14.796875 17.390625 18.875 11.75 
Q 22.953125 6.109375 30.078125 6.109375 
Q 37.203125 6.109375 41.296875 11.75 
Q 45.40625 17.390625 45.40625 27.296875 
Q 45.40625 37.203125 41.296875 42.84375 
Q 37.203125 48.484375 30.078125 48.484375 
Q 22.953125 48.484375 18.875 42.84375 
Q 14.796875 37.203125 14.796875 27.296875 
z
" id="DejaVuSans-100"/>
      <path d="M 10.59375 45.40625 
L 73.1875 45.40625 
L 73.1875 37.203125 
L 10.59375 37.203125 
z
M 10.59375 25.484375 
L 73.1875 25.484375 
L 73.1875 17.1875 
L 10.59375 17.1875 
z
" id="DejaVuSans-61"/>
      <path d="M -0.296875 72.90625 
L 61.375 72.90625 
L 61.375 64.59375 
L 35.5 64.59375 
L 35.5 0 
L 25.59375 0 
L 25.59375 64.59375 
L -0.296875 64.59375 
z
" id="DejaVuSans-84"/>
     </defs>
     <g transform="translate(121.045 33.8275)scale(0.16 -0.16)">
      <use xlink:href="#DejaVuSans-118"/>
      <use x="59.179688" xlink:href="#DejaVuSans-48"/>
      <use x="122.802734" xlink:href="#DejaVuSans-46"/>
      <use x="154.589844" xlink:href="#DejaVuSans-50"/>
      <use x="218.212891" xlink:href="#DejaVuSans-50"/>
      <use x="281.835938" xlink:href="#DejaVuSans-32"/>
      <use x="313.623047" xlink:href="#DejaVuSans-124"/>
      <use x="347.314453" xlink:href="#DejaVuSans-32"/>
      <use x="379.101562" xlink:href="#DejaVuSans-112"/>
      <use x="442.578125" xlink:href="#DejaVuSans-114"/>
      <use x="483.660156" xlink:href="#DejaVuSans-101"/>
      <use x="545.183594" xlink:href="#DejaVuSans-99"/>
      <use x="600.164062" xlink:href="#DejaVuSans-111"/>
      <use x="661.345703" xlink:href="#DejaVuSans-109"/>
      <use x="758.757812" xlink:href="#DejaVuSans-112"/>
      <use x="822.234375" xlink:href="#DejaVuSans-117"/>
      <use x="885.613281" xlink:href="#DejaVuSans-116"/>
      <use x="924.822266" xlink:href="#DejaVuSans-101"/>
      <use x="986.345703" xlink:href="#DejaVuSans-95"/>
      <use x="1036.345703" xlink:href="#DejaVuSans-100"/>
      <use x="1099.822266" xlink:href="#DejaVuSans-105"/>
      <use x="1127.605469" xlink:href="#DejaVuSans-115"/>
      <use x="1179.705078" xlink:href="#DejaVuSans-116"/>
      <use x="1218.914062" xlink:href="#DejaVuSans-97"/>
      <use x="1280.193359" xlink:href="#DejaVuSans-110"/>
      <use x="1343.572266" xlink:href="#DejaVuSans-99"/>
      <use x="1398.552734" xlink:href="#DejaVuSans-101"/>
      <use x="1460.076172" xlink:href="#DejaVuSans-115"/>
      <use x="1512.175781" xlink:href="#DejaVuSans-61"/>
      <use x="1595.964844" xlink:href="#DejaVuSans-84"/>
      <use x="1656.830078" xlink:href="#DejaVuSans-114"/>
      <use x="1697.943359" xlink:href="#DejaVuSans-117"/>
      <use x="1761.322266" xlink:href="#DejaVuSans-101"/>
     </g>
    </g>
    <g id="line2d_73">
     <path d="M 76.245 52.2275 
L 108.245 52.2275 
" style="fill:none;stroke:#ff7f0e;stroke-dasharray:5.55,2.4;stroke-dashoffset:0;stroke-width:1.5;"/>
    </g>
    <g id="line2d_74"/>
    <g id="text_12">
     <!-- v0.22 | precompute_distances=False -->
     <defs>
      <path d="M 9.8125 72.90625 
L 51.703125 72.90625 
L 51.703125 64.59375 
L 19.671875 64.59375 
L 19.671875 43.109375 
L 48.578125 43.109375 
L 48.578125 34.8125 
L 19.671875 34.8125 
L 19.671875 0 
L 9.8125 0 
z
" id="DejaVuSans-70"/>
     </defs>
     <g transform="translate(121.045 57.8275)scale(0.16 -0.16)">
      <use xlink:href="#DejaVuSans-118"/>
      <use x="59.179688" xlink:href="#DejaVuSans-48"/>
      <use x="122.802734" xlink:href="#DejaVuSans-46"/>
      <use x="154.589844" xlink:href="#DejaVuSans-50"/>
      <use x="218.212891" xlink:href="#DejaVuSans-50"/>
      <use x="281.835938" xlink:href="#DejaVuSans-32"/>
      <use x="313.623047" xlink:href="#DejaVuSans-124"/>
      <use x="347.314453" xlink:href="#DejaVuSans-32"/>
      <use x="379.101562" xlink:href="#DejaVuSans-112"/>
      <use x="442.578125" xlink:href="#DejaVuSans-114"/>
      <use x="483.660156" xlink:href="#DejaVuSans-101"/>
      <use x="545.183594" xlink:href="#DejaVuSans-99"/>
      <use x="600.164062" xlink:href="#DejaVuSans-111"/>
      <use x="661.345703" xlink:href="#DejaVuSans-109"/>
      <use x="758.757812" xlink:href="#DejaVuSans-112"/>
      <use x="822.234375" xlink:href="#DejaVuSans-117"/>
      <use x="885.613281" xlink:href="#DejaVuSans-116"/>
      <use x="924.822266" xlink:href="#DejaVuSans-101"/>
      <use x="986.345703" xlink:href="#DejaVuSans-95"/>
      <use x="1036.345703" xlink:href="#DejaVuSans-100"/>
      <use x="1099.822266" xlink:href="#DejaVuSans-105"/>
      <use x="1127.605469" xlink:href="#DejaVuSans-115"/>
      <use x="1179.705078" xlink:href="#DejaVuSans-116"/>
      <use x="1218.914062" xlink:href="#DejaVuSans-97"/>
      <use x="1280.193359" xlink:href="#DejaVuSans-110"/>
      <use x="1343.572266" xlink:href="#DejaVuSans-99"/>
      <use x="1398.552734" xlink:href="#DejaVuSans-101"/>
      <use x="1460.076172" xlink:href="#DejaVuSans-115"/>
      <use x="1512.175781" xlink:href="#DejaVuSans-61"/>
      <use x="1595.964844" xlink:href="#DejaVuSans-70"/>
      <use x="1653.34375" xlink:href="#DejaVuSans-97"/>
      <use x="1714.623047" xlink:href="#DejaVuSans-108"/>
      <use x="1742.40625" xlink:href="#DejaVuSans-115"/>
      <use x="1794.505859" xlink:href="#DejaVuSans-101"/>
     </g>
    </g>
    <g id="line2d_75">
     <path d="M 76.245 76.1575 
L 108.245 76.1575 
" style="fill:none;stroke:#2ca02c;stroke-dasharray:5.55,2.4;stroke-dashoffset:0;stroke-width:1.5;"/>
    </g>
    <g id="line2d_76"/>
    <g id="text_13">
     <!-- v0.23 -->
     <g transform="translate(121.045 81.7575)scale(0.16 -0.16)">
      <use xlink:href="#DejaVuSans-118"/>
      <use x="59.179688" xlink:href="#DejaVuSans-48"/>
      <use x="122.802734" xlink:href="#DejaVuSans-46"/>
      <use x="154.589844" xlink:href="#DejaVuSans-50"/>
      <use x="218.212891" xlink:href="#DejaVuSans-51"/>
     </g>
    </g>
   </g>
  </g>
  <g id="axes_2">
   <g id="patch_8">
    <path d="M 670.572273 442.08 
L 1177.845 442.08 
L 1177.845 7.2 
L 670.572273 7.2 
z
" style="fill:#ffffff;"/>
   </g>
   <g id="patch_9">
    <path clip-path="url(#p5a6aeafeac)" d="M 693.630124 442.08 
L 737.253086 442.08 
L 737.253086 384.945864 
L 693.630124 384.945864 
z
" style="fill:#1f77b4;"/>
   </g>
   <g id="patch_10">
    <path clip-path="url(#p5a6aeafeac)" d="M 818.267158 442.08 
L 861.890119 442.08 
L 861.890119 344.553951 
L 818.267158 344.553951 
z
" style="fill:#1f77b4;"/>
   </g>
   <g id="patch_11">
    <path clip-path="url(#p5a6aeafeac)" d="M 942.904191 442.08 
L 986.527153 442.08 
L 986.527153 342.350555 
L 942.904191 342.350555 
z
" style="fill:#1f77b4;"/>
   </g>
   <g id="patch_12">
    <path clip-path="url(#p5a6aeafeac)" d="M 1067.541225 442.08 
L 1111.164187 442.08 
L 1111.164187 340.847588 
L 1067.541225 340.847588 
z
" style="fill:#1f77b4;"/>
   </g>
   <g id="patch_13">
    <path clip-path="url(#p5a6aeafeac)" d="M 737.253086 442.08 
L 780.876048 442.08 
L 780.876048 193.562742 
L 737.253086 193.562742 
z
" style="fill:#ff7f0e;"/>
   </g>
   <g id="patch_14">
    <path clip-path="url(#p5a6aeafeac)" d="M 861.890119 442.08 
L 905.513081 442.08 
L 905.513081 97.759398 
L 861.890119 97.759398 
z
" style="fill:#ff7f0e;"/>
   </g>
   <g id="patch_15">
    <path clip-path="url(#p5a6aeafeac)" d="M 986.527153 442.08 
L 1030.150115 442.08 
L 1030.150115 92.683818 
L 986.527153 92.683818 
z
" style="fill:#ff7f0e;"/>
   </g>
   <g id="patch_16">
    <path clip-path="url(#p5a6aeafeac)" d="M 1111.164187 442.08 
L 1154.787149 442.08 
L 1154.787149 90.576147 
L 1111.164187 90.576147 
z
" style="fill:#ff7f0e;"/>
   </g>
   <g id="matplotlib.axis_3">
    <g id="xtick_31">
     <g id="line2d_77">
      <g>
       <use style="stroke:#000000;stroke-width:0.8;" x="737.253086" xlink:href="#m32c03256ba" y="442.08"/>
      </g>
     </g>
     <g id="text_14">
      <!-- 10⁴ -->
      <defs>
       <path d="M 23.296875 67.484375 
L 8.203125 47.015625 
L 23.296875 47.015625 
z
M 22.21875 73.390625 
L 30.328125 73.390625 
L 30.328125 47.015625 
L 36.921875 47.015625 
L 36.921875 41.703125 
L 30.328125 41.703125 
L 30.328125 32.625 
L 23.296875 32.625 
L 23.296875 41.703125 
L 3.078125 41.703125 
L 3.078125 47.609375 
z
" id="DejaVuSans-8308"/>
      </defs>
      <g transform="translate(723.865586 461.2375)scale(0.16 -0.16)">
       <use xlink:href="#DejaVuSans-49"/>
       <use x="63.623047" xlink:href="#DejaVuSans-48"/>
       <use x="127.246094" xlink:href="#DejaVuSans-8308"/>
      </g>
     </g>
    </g>
    <g id="xtick_32">
     <g id="line2d_78">
      <g>
       <use style="stroke:#000000;stroke-width:0.8;" x="861.890119" xlink:href="#m32c03256ba" y="442.08"/>
      </g>
     </g>
     <g id="text_15">
      <!-- 10⁵ -->
      <defs>
       <path d="M 6.9375 73.390625 
L 31.84375 73.390625 
L 31.84375 68.75 
L 12.75 68.75 
L 12.75 58.796875 
Q 14.109375 59.234375 15.53125 59.421875 
Q 16.890625 59.625 18.265625 59.625 
Q 26.125 59.625 30.71875 55.859375 
Q 35.296875 52.15625 35.296875 45.75 
Q 35.296875 39.15625 30.5625 35.5 
Q 25.875 31.890625 17.28125 31.890625 
Q 14.359375 31.890625 11.28125 32.328125 
Q 8.203125 32.765625 4.984375 33.640625 
L 4.984375 39.15625 
Q 7.765625 37.84375 10.796875 37.15625 
Q 13.8125 36.53125 17.1875 36.53125 
Q 22.609375 36.53125 25.78125 39.015625 
Q 28.953125 41.5 28.953125 45.75 
Q 28.953125 50 25.78125 52.484375 
Q 22.609375 54.984375 17.1875 54.984375 
Q 14.65625 54.984375 12.109375 54.484375 
Q 9.578125 54 6.9375 52.984375 
z
" id="DejaVuSans-8309"/>
      </defs>
      <g transform="translate(848.502619 461.2375)scale(0.16 -0.16)">
       <use xlink:href="#DejaVuSans-49"/>
       <use x="63.623047" xlink:href="#DejaVuSans-48"/>
       <use x="127.246094" xlink:href="#DejaVuSans-8309"/>
      </g>
     </g>
    </g>
    <g id="xtick_33">
     <g id="line2d_79">
      <g>
       <use style="stroke:#000000;stroke-width:0.8;" x="986.527153" xlink:href="#m32c03256ba" y="442.08"/>
      </g>
     </g>
     <g id="text_16">
      <!-- 10⁶ -->
      <defs>
       <path d="M 21.234375 55.328125 
Q 16.9375 55.328125 14.453125 52.78125 
Q 11.96875 50.203125 11.96875 45.75 
Q 11.96875 41.359375 14.453125 38.8125 
Q 16.9375 36.234375 21.234375 36.234375 
Q 25.484375 36.234375 27.984375 38.8125 
Q 30.46875 41.359375 30.46875 45.75 
Q 30.46875 50.203125 27.984375 52.78125 
Q 25.484375 55.328125 21.234375 55.328125 
z
M 33.84375 72.609375 
L 33.84375 67.578125 
Q 31.453125 68.5625 29 69.046875 
Q 26.5625 69.578125 24.171875 69.578125 
Q 17.921875 69.578125 14.59375 65.921875 
Q 11.28125 62.203125 10.796875 54.734375 
Q 12.640625 57.125 15.4375 58.40625 
Q 18.265625 59.671875 21.578125 59.671875 
Q 28.65625 59.671875 32.765625 55.953125 
Q 36.859375 52.203125 36.859375 45.75 
Q 36.859375 39.546875 32.5625 35.6875 
Q 28.328125 31.890625 21.234375 31.890625 
Q 13.09375 31.890625 8.796875 37.296875 
Q 4.5 42.71875 4.5 53.078125 
Q 4.5 62.75 9.765625 68.453125 
Q 15.046875 74.21875 23.921875 74.21875 
Q 26.3125 74.21875 28.765625 73.828125 
Q 31.203125 73.390625 33.84375 72.609375 
z
" id="DejaVuSans-8310"/>
      </defs>
      <g transform="translate(973.139653 461.2375)scale(0.16 -0.16)">
       <use xlink:href="#DejaVuSans-49"/>
       <use x="63.623047" xlink:href="#DejaVuSans-48"/>
       <use x="127.246094" xlink:href="#DejaVuSans-8310"/>
      </g>
     </g>
    </g>
    <g id="xtick_34">
     <g id="line2d_80">
      <g>
       <use style="stroke:#000000;stroke-width:0.8;" x="1111.164187" xlink:href="#m32c03256ba" y="442.08"/>
      </g>
     </g>
     <g id="text_17">
      <!-- 10⁷ -->
      <defs>
       <path d="M 5.28125 73.390625 
L 35.40625 73.390625 
L 35.40625 71.046875 
L 18.40625 32.625 
L 11.765625 32.625 
L 27.78125 68.75 
L 5.28125 68.75 
z
" id="DejaVuSans-8311"/>
      </defs>
      <g transform="translate(1097.776687 461.2375)scale(0.16 -0.16)">
       <use xlink:href="#DejaVuSans-49"/>
       <use x="63.623047" xlink:href="#DejaVuSans-48"/>
       <use x="127.246094" xlink:href="#DejaVuSans-8311"/>
      </g>
     </g>
    </g>
    <g id="text_18">
     <!-- n_samples -->
     <g transform="translate(881.884886 480.7225)scale(0.16 -0.16)">
      <use xlink:href="#DejaVuSans-110"/>
      <use x="63.378906" xlink:href="#DejaVuSans-95"/>
      <use x="113.378906" xlink:href="#DejaVuSans-115"/>
      <use x="165.478516" xlink:href="#DejaVuSans-97"/>
      <use x="226.757812" xlink:href="#DejaVuSans-109"/>
      <use x="324.169922" xlink:href="#DejaVuSans-112"/>
      <use x="387.646484" xlink:href="#DejaVuSans-108"/>
      <use x="415.429688" xlink:href="#DejaVuSans-101"/>
      <use x="476.953125" xlink:href="#DejaVuSans-115"/>
     </g>
    </g>
   </g>
   <g id="matplotlib.axis_4">
    <g id="ytick_38">
     <g id="line2d_81">
      <g>
       <use style="stroke:#000000;stroke-width:0.8;" x="670.572273" xlink:href="#m5f304e4625" y="442.08"/>
      </g>
     </g>
     <g id="text_19">
      <!-- 0 -->
      <g transform="translate(653.392273 448.15875)scale(0.16 -0.16)">
       <use xlink:href="#DejaVuSans-48"/>
      </g>
     </g>
    </g>
    <g id="ytick_39">
     <g id="line2d_82">
      <g>
       <use style="stroke:#000000;stroke-width:0.8;" x="670.572273" xlink:href="#m5f304e4625" y="363.010909"/>
      </g>
     </g>
     <g id="text_20">
      <!-- 2 -->
      <g transform="translate(653.392273 369.089659)scale(0.16 -0.16)">
       <use xlink:href="#DejaVuSans-50"/>
      </g>
     </g>
    </g>
    <g id="ytick_40">
     <g id="line2d_83">
      <g>
       <use style="stroke:#000000;stroke-width:0.8;" x="670.572273" xlink:href="#m5f304e4625" y="283.941818"/>
      </g>
     </g>
     <g id="text_21">
      <!-- 4 -->
      <g transform="translate(653.392273 290.020568)scale(0.16 -0.16)">
       <use xlink:href="#DejaVuSans-52"/>
      </g>
     </g>
    </g>
    <g id="ytick_41">
     <g id="line2d_84">
      <g>
       <use style="stroke:#000000;stroke-width:0.8;" x="670.572273" xlink:href="#m5f304e4625" y="204.872727"/>
      </g>
     </g>
     <g id="text_22">
      <!-- 6 -->
      <g transform="translate(653.392273 210.951477)scale(0.16 -0.16)">
       <use xlink:href="#DejaVuSans-54"/>
      </g>
     </g>
    </g>
    <g id="ytick_42">
     <g id="line2d_85">
      <g>
       <use style="stroke:#000000;stroke-width:0.8;" x="670.572273" xlink:href="#m5f304e4625" y="125.803636"/>
      </g>
     </g>
     <g id="text_23">
      <!-- 8 -->
      <defs>
       <path d="M 31.78125 34.625 
Q 24.75 34.625 20.71875 30.859375 
Q 16.703125 27.09375 16.703125 20.515625 
Q 16.703125 13.921875 20.71875 10.15625 
Q 24.75 6.390625 31.78125 6.390625 
Q 38.8125 6.390625 42.859375 10.171875 
Q 46.921875 13.96875 46.921875 20.515625 
Q 46.921875 27.09375 42.890625 30.859375 
Q 38.875 34.625 31.78125 34.625 
z
M 21.921875 38.8125 
Q 15.578125 40.375 12.03125 44.71875 
Q 8.5 49.078125 8.5 55.328125 
Q 8.5 64.0625 14.71875 69.140625 
Q 20.953125 74.21875 31.78125 74.21875 
Q 42.671875 74.21875 48.875 69.140625 
Q 55.078125 64.0625 55.078125 55.328125 
Q 55.078125 49.078125 51.53125 44.71875 
Q 48 40.375 41.703125 38.8125 
Q 48.828125 37.15625 52.796875 32.3125 
Q 56.78125 27.484375 56.78125 20.515625 
Q 56.78125 9.90625 50.3125 4.234375 
Q 43.84375 -1.421875 31.78125 -1.421875 
Q 19.734375 -1.421875 13.25 4.234375 
Q 6.78125 9.90625 6.78125 20.515625 
Q 6.78125 27.484375 10.78125 32.3125 
Q 14.796875 37.15625 21.921875 38.8125 
z
M 18.3125 54.390625 
Q 18.3125 48.734375 21.84375 45.5625 
Q 25.390625 42.390625 31.78125 42.390625 
Q 38.140625 42.390625 41.71875 45.5625 
Q 45.3125 48.734375 45.3125 54.390625 
Q 45.3125 60.0625 41.71875 63.234375 
Q 38.140625 66.40625 31.78125 66.40625 
Q 25.390625 66.40625 21.84375 63.234375 
Q 18.3125 60.0625 18.3125 54.390625 
z
" id="DejaVuSans-56"/>
      </defs>
      <g transform="translate(653.392273 131.882386)scale(0.16 -0.16)">
       <use xlink:href="#DejaVuSans-56"/>
      </g>
     </g>
    </g>
    <g id="ytick_43">
     <g id="line2d_86">
      <g>
       <use style="stroke:#000000;stroke-width:0.8;" x="670.572273" xlink:href="#m5f304e4625" y="46.734545"/>
      </g>
     </g>
     <g id="text_24">
      <!-- 10 -->
      <g transform="translate(643.212273 52.813295)scale(0.16 -0.16)">
       <use xlink:href="#DejaVuSans-49"/>
       <use x="63.623047" xlink:href="#DejaVuSans-48"/>
      </g>
     </g>
    </g>
    <g id="text_25">
     <!-- Speed up -->
     <defs>
      <path d="M 53.515625 70.515625 
L 53.515625 60.890625 
Q 47.90625 63.578125 42.921875 64.890625 
Q 37.9375 66.21875 33.296875 66.21875 
Q 25.25 66.21875 20.875 63.09375 
Q 16.5 59.96875 16.5 54.203125 
Q 16.5 49.359375 19.40625 46.890625 
Q 22.3125 44.4375 30.421875 42.921875 
L 36.375 41.703125 
Q 47.40625 39.59375 52.65625 34.296875 
Q 57.90625 29 57.90625 20.125 
Q 57.90625 9.515625 50.796875 4.046875 
Q 43.703125 -1.421875 29.984375 -1.421875 
Q 24.8125 -1.421875 18.96875 -0.25 
Q 13.140625 0.921875 6.890625 3.21875 
L 6.890625 13.375 
Q 12.890625 10.015625 18.65625 8.296875 
Q 24.421875 6.59375 29.984375 6.59375 
Q 38.421875 6.59375 43.015625 9.90625 
Q 47.609375 13.234375 47.609375 19.390625 
Q 47.609375 24.75 44.3125 27.78125 
Q 41.015625 30.8125 33.5 32.328125 
L 27.484375 33.5 
Q 16.453125 35.6875 11.515625 40.375 
Q 6.59375 45.0625 6.59375 53.421875 
Q 6.59375 63.09375 13.40625 68.65625 
Q 20.21875 74.21875 32.171875 74.21875 
Q 37.3125 74.21875 42.625 73.28125 
Q 47.953125 72.359375 53.515625 70.515625 
z
" id="DejaVuSans-83"/>
     </defs>
     <g transform="translate(635.884773 262.4125)rotate(-90)scale(0.16 -0.16)">
      <use xlink:href="#DejaVuSans-83"/>
      <use x="63.476562" xlink:href="#DejaVuSans-112"/>
      <use x="126.953125" xlink:href="#DejaVuSans-101"/>
      <use x="188.476562" xlink:href="#DejaVuSans-101"/>
      <use x="250" xlink:href="#DejaVuSans-100"/>
      <use x="313.476562" xlink:href="#DejaVuSans-32"/>
      <use x="345.263672" xlink:href="#DejaVuSans-117"/>
      <use x="408.642578" xlink:href="#DejaVuSans-112"/>
     </g>
    </g>
   </g>
   <g id="patch_17">
    <path d="M 670.572273 442.08 
L 670.572273 7.2 
" style="fill:none;stroke:#000000;stroke-linecap:square;stroke-linejoin:miter;stroke-width:0.8;"/>
   </g>
   <g id="patch_18">
    <path d="M 1177.845 442.08 
L 1177.845 7.2 
" style="fill:none;stroke:#000000;stroke-linecap:square;stroke-linejoin:miter;stroke-width:0.8;"/>
   </g>
   <g id="patch_19">
    <path d="M 670.572273 442.08 
L 1177.845 442.08 
" style="fill:none;stroke:#000000;stroke-linecap:square;stroke-linejoin:miter;stroke-width:0.8;"/>
   </g>
   <g id="patch_20">
    <path d="M 670.572273 7.2 
L 1177.845 7.2 
" style="fill:none;stroke:#000000;stroke-linecap:square;stroke-linejoin:miter;stroke-width:0.8;"/>
   </g>
   <g id="text_26">
    <!-- 1.4 x -->
    <defs>
     <path d="M 54.890625 54.6875 
L 35.109375 28.078125 
L 55.90625 0 
L 45.3125 0 
L 29.390625 21.484375 
L 13.484375 0 
L 2.875 0 
L 24.125 28.609375 
L 4.6875 54.6875 
L 15.28125 54.6875 
L 29.78125 35.203125 
L 44.28125 54.6875 
z
" id="DejaVuSans-120"/>
    </defs>
    <g transform="translate(695.441605 378.618364)scale(0.16 -0.16)">
     <use xlink:href="#DejaVuSans-49"/>
     <use x="63.623047" xlink:href="#DejaVuSans-46"/>
     <use x="95.410156" xlink:href="#DejaVuSans-52"/>
     <use x="159.033203" xlink:href="#DejaVuSans-32"/>
     <use x="190.820312" xlink:href="#DejaVuSans-120"/>
    </g>
   </g>
   <g id="text_27">
    <!-- 2.5 x -->
    <g transform="translate(820.078639 338.226451)scale(0.16 -0.16)">
     <use xlink:href="#DejaVuSans-50"/>
     <use x="63.623047" xlink:href="#DejaVuSans-46"/>
     <use x="95.410156" xlink:href="#DejaVuSans-53"/>
     <use x="159.033203" xlink:href="#DejaVuSans-32"/>
     <use x="190.820312" xlink:href="#DejaVuSans-120"/>
    </g>
   </g>
   <g id="text_28">
    <!-- 2.5 x -->
    <g transform="translate(944.715672 336.023055)scale(0.16 -0.16)">
     <use xlink:href="#DejaVuSans-50"/>
     <use x="63.623047" xlink:href="#DejaVuSans-46"/>
     <use x="95.410156" xlink:href="#DejaVuSans-53"/>
     <use x="159.033203" xlink:href="#DejaVuSans-32"/>
     <use x="190.820312" xlink:href="#DejaVuSans-120"/>
    </g>
   </g>
   <g id="text_29">
    <!-- 2.6 x -->
    <g transform="translate(1069.352706 334.520088)scale(0.16 -0.16)">
     <use xlink:href="#DejaVuSans-50"/>
     <use x="63.623047" xlink:href="#DejaVuSans-46"/>
     <use x="95.410156" xlink:href="#DejaVuSans-54"/>
     <use x="159.033203" xlink:href="#DejaVuSans-32"/>
     <use x="190.820312" xlink:href="#DejaVuSans-120"/>
    </g>
   </g>
   <g id="text_30">
    <!-- 6.3 x -->
    <g transform="translate(739.064567 187.235242)scale(0.16 -0.16)">
     <use xlink:href="#DejaVuSans-54"/>
     <use x="63.623047" xlink:href="#DejaVuSans-46"/>
     <use x="95.410156" xlink:href="#DejaVuSans-51"/>
     <use x="159.033203" xlink:href="#DejaVuSans-32"/>
     <use x="190.820312" xlink:href="#DejaVuSans-120"/>
    </g>
   </g>
   <g id="text_31">
    <!-- 8.7 x -->
    <g transform="translate(863.7016 91.431898)scale(0.16 -0.16)">
     <use xlink:href="#DejaVuSans-56"/>
     <use x="63.623047" xlink:href="#DejaVuSans-46"/>
     <use x="95.410156" xlink:href="#DejaVuSans-55"/>
     <use x="159.033203" xlink:href="#DejaVuSans-32"/>
     <use x="190.820312" xlink:href="#DejaVuSans-120"/>
    </g>
   </g>
   <g id="text_32">
    <!-- 8.8 x -->
    <g transform="translate(988.338634 86.356318)scale(0.16 -0.16)">
     <use xlink:href="#DejaVuSans-56"/>
     <use x="63.623047" xlink:href="#DejaVuSans-46"/>
     <use x="95.410156" xlink:href="#DejaVuSans-56"/>
     <use x="159.033203" xlink:href="#DejaVuSans-32"/>
     <use x="190.820312" xlink:href="#DejaVuSans-120"/>
    </g>
   </g>
   <g id="text_33">
    <!-- 8.9 x -->
    <defs>
     <path d="M 10.984375 1.515625 
L 10.984375 10.5 
Q 14.703125 8.734375 18.5 7.8125 
Q 22.3125 6.890625 25.984375 6.890625 
Q 35.75 6.890625 40.890625 13.453125 
Q 46.046875 20.015625 46.78125 33.40625 
Q 43.953125 29.203125 39.59375 26.953125 
Q 35.25 24.703125 29.984375 24.703125 
Q 19.046875 24.703125 12.671875 31.3125 
Q 6.296875 37.9375 6.296875 49.421875 
Q 6.296875 60.640625 12.9375 67.421875 
Q 19.578125 74.21875 30.609375 74.21875 
Q 43.265625 74.21875 49.921875 64.515625 
Q 56.59375 54.828125 56.59375 36.375 
Q 56.59375 19.140625 48.40625 8.859375 
Q 40.234375 -1.421875 26.421875 -1.421875 
Q 22.703125 -1.421875 18.890625 -0.6875 
Q 15.09375 0.046875 10.984375 1.515625 
z
M 30.609375 32.421875 
Q 37.25 32.421875 41.125 36.953125 
Q 45.015625 41.5 45.015625 49.421875 
Q 45.015625 57.28125 41.125 61.84375 
Q 37.25 66.40625 30.609375 66.40625 
Q 23.96875 66.40625 20.09375 61.84375 
Q 16.21875 57.28125 16.21875 49.421875 
Q 16.21875 41.5 20.09375 36.953125 
Q 23.96875 32.421875 30.609375 32.421875 
z
" id="DejaVuSans-57"/>
    </defs>
    <g transform="translate(1112.975668 84.248647)scale(0.16 -0.16)">
     <use xlink:href="#DejaVuSans-56"/>
     <use x="63.623047" xlink:href="#DejaVuSans-46"/>
     <use x="95.410156" xlink:href="#DejaVuSans-57"/>
     <use x="159.033203" xlink:href="#DejaVuSans-32"/>
     <use x="190.820312" xlink:href="#DejaVuSans-120"/>
    </g>
   </g>
   <g id="legend_2">
    <g id="patch_21">
     <path d="M 681.772273 67.86 
L 969.284773 67.86 
Q 972.484773 67.86 972.484773 64.66 
L 972.484773 18.4 
Q 972.484773 15.2 969.284773 15.2 
L 681.772273 15.2 
Q 678.572273 15.2 678.572273 18.4 
L 678.572273 64.66 
Q 678.572273 67.86 681.772273 67.86 
z
" style="fill:#ffffff;opacity:0.8;stroke:#cccccc;stroke-linejoin:miter;"/>
    </g>
    <g id="patch_22">
     <path d="M 684.972273 33.7575 
L 716.972273 33.7575 
L 716.972273 22.5575 
L 684.972273 22.5575 
z
" style="fill:#1f77b4;"/>
    </g>
    <g id="text_34">
     <!-- precompute_distances=True -->
     <g transform="translate(729.772273 33.7575)scale(0.16 -0.16)">
      <use xlink:href="#DejaVuSans-112"/>
      <use x="63.476562" xlink:href="#DejaVuSans-114"/>
      <use x="104.558594" xlink:href="#DejaVuSans-101"/>
      <use x="166.082031" xlink:href="#DejaVuSans-99"/>
      <use x="221.0625" xlink:href="#DejaVuSans-111"/>
      <use x="282.244141" xlink:href="#DejaVuSans-109"/>
      <use x="379.65625" xlink:href="#DejaVuSans-112"/>
      <use x="443.132812" xlink:href="#DejaVuSans-117"/>
      <use x="506.511719" xlink:href="#DejaVuSans-116"/>
      <use x="545.720703" xlink:href="#DejaVuSans-101"/>
      <use x="607.244141" xlink:href="#DejaVuSans-95"/>
      <use x="657.244141" xlink:href="#DejaVuSans-100"/>
      <use x="720.720703" xlink:href="#DejaVuSans-105"/>
      <use x="748.503906" xlink:href="#DejaVuSans-115"/>
      <use x="800.603516" xlink:href="#DejaVuSans-116"/>
      <use x="839.8125" xlink:href="#DejaVuSans-97"/>
      <use x="901.091797" xlink:href="#DejaVuSans-110"/>
      <use x="964.470703" xlink:href="#DejaVuSans-99"/>
      <use x="1019.451172" xlink:href="#DejaVuSans-101"/>
      <use x="1080.974609" xlink:href="#DejaVuSans-115"/>
      <use x="1133.074219" xlink:href="#DejaVuSans-61"/>
      <use x="1216.863281" xlink:href="#DejaVuSans-84"/>
      <use x="1277.728516" xlink:href="#DejaVuSans-114"/>
      <use x="1318.841797" xlink:href="#DejaVuSans-117"/>
      <use x="1382.220703" xlink:href="#DejaVuSans-101"/>
     </g>
    </g>
    <g id="patch_23">
     <path d="M 684.972273 57.6875 
L 716.972273 57.6875 
L 716.972273 46.4875 
L 684.972273 46.4875 
z
" style="fill:#ff7f0e;"/>
    </g>
    <g id="text_35">
     <!-- precompute_distances=False -->
     <g transform="translate(729.772273 57.6875)scale(0.16 -0.16)">
      <use xlink:href="#DejaVuSans-112"/>
      <use x="63.476562" xlink:href="#DejaVuSans-114"/>
      <use x="104.558594" xlink:href="#DejaVuSans-101"/>
      <use x="166.082031" xlink:href="#DejaVuSans-99"/>
      <use x="221.0625" xlink:href="#DejaVuSans-111"/>
      <use x="282.244141" xlink:href="#DejaVuSans-109"/>
      <use x="379.65625" xlink:href="#DejaVuSans-112"/>
      <use x="443.132812" xlink:href="#DejaVuSans-117"/>
      <use x="506.511719" xlink:href="#DejaVuSans-116"/>
      <use x="545.720703" xlink:href="#DejaVuSans-101"/>
      <use x="607.244141" xlink:href="#DejaVuSans-95"/>
      <use x="657.244141" xlink:href="#DejaVuSans-100"/>
      <use x="720.720703" xlink:href="#DejaVuSans-105"/>
      <use x="748.503906" xlink:href="#DejaVuSans-115"/>
      <use x="800.603516" xlink:href="#DejaVuSans-116"/>
      <use x="839.8125" xlink:href="#DejaVuSans-97"/>
      <use x="901.091797" xlink:href="#DejaVuSans-110"/>
      <use x="964.470703" xlink:href="#DejaVuSans-99"/>
      <use x="1019.451172" xlink:href="#DejaVuSans-101"/>
      <use x="1080.974609" xlink:href="#DejaVuSans-115"/>
      <use x="1133.074219" xlink:href="#DejaVuSans-61"/>
      <use x="1216.863281" xlink:href="#DejaVuSans-70"/>
      <use x="1274.242188" xlink:href="#DejaVuSans-97"/>
      <use x="1335.521484" xlink:href="#DejaVuSans-108"/>
      <use x="1363.304688" xlink:href="#DejaVuSans-115"/>
      <use x="1415.404297" xlink:href="#DejaVuSans-101"/>
     </g>
    </g>
   </g>
  </g>
 </g>
 <defs>
  <clipPath id="p2073f3cb7a">
   <rect height="434.88" width="507.272727" x="61.845" y="7.2"/>
  </clipPath>
  <clipPath id="p5a6aeafeac">
   <rect height="434.88" width="507.272727" x="670.572273" y="7.2"/>
  </clipPath>
 </defs>
</svg>
